<svg width="50" height="51" viewBox="0 0 50 51" fill="none" xmlns="http://www.w3.org/2000/svg">
<g clip-path="url(#clip0_175_387)">
<path d="M25 50.5459C38.8071 50.5459 50 39.353 50 25.5459C50 11.7388 38.8071 0.545898 25 0.545898C11.1929 0.545898 0 11.7388 0 25.5459C0 39.353 11.1929 50.5459 25 50.5459Z" fill="#F0F0F0"/>
<path d="M24.9998 0.545898C15.0883 0.545898 6.52422 6.31396 2.48047 14.6764H47.519C43.4754 6.31396 34.9112 0.545898 24.9998 0.545898Z" fill="#338AF3"/>
<path d="M24.9998 50.5455C34.9112 50.5455 43.4754 44.7774 47.5191 36.415H2.48047C6.52422 44.7774 15.0883 50.5455 24.9998 50.5455Z" fill="#338AF3"/>
<path d="M32.4717 25.5456L29.4185 26.9818L31.0443 29.9388L27.7289 29.3045L27.3088 32.6537L24.9995 30.1904L22.6901 32.6537L22.2701 29.3045L18.9547 29.9387L20.5805 26.9817L17.5273 25.5456L20.5806 24.1094L18.9547 21.1525L22.27 21.7867L22.6902 18.4375L24.9995 20.9008L27.3089 18.4375L27.7289 21.7867L31.0444 21.1525L29.4186 24.1095L32.4717 25.5456Z" fill="#FFDA44"/>
</g>
<defs>
<clipPath id="clip0_175_387">
<rect width="50" height="50" fill="white" transform="translate(0 0.545898)"/>
</clipPath>
</defs>
</svg>
